<?xml version="1.0" encoding="UTF-8"?>
<svg id="uuid-60d74500-f85c-4cde-a9bf-c6a5a033ed7e" data-name="Layer 1" xmlns="http://www.w3.org/2000/svg" xmlns:xlink="http://www.w3.org/1999/xlink" viewBox="0 0 16.48 16.48">
  <defs>
    <style>
      .uuid-df918427-2f2b-4726-b83b-d769ef3600ff {
        fill: #fff;
      }

      .uuid-2363cd09-22c4-4725-b8ee-0c776bc28dd3 {
        fill: #571b09;
      }

      .uuid-85ea5ca8-2c86-4a22-856d-dd5f01c416e2 {
        mask: url(#uuid-384199ab-d133-4a38-bc2f-4e64371de5ab);
      }
    </style>
    <mask id="uuid-384199ab-d133-4a38-bc2f-4e64371de5ab" data-name="mask" x="-.11" y="-.41" width="17" height="17" maskUnits="userSpaceOnUse">
      <g id="uuid-25a1108e-3ea7-42c8-80f3-84c486f62055" data-name="path-1-outside-1 7 616">
        <rect class="uuid-df918427-2f2b-4726-b83b-d769ef3600ff" x="-.11" y="-.41" width="17" height="17"/>
        <path d="m10.48,3l-7.19,7.19c-.19.19-.29.29-.36.41-.07.12-.1.25-.17.52l-.66,2.65c-.09.36-.14.54-.04.64.1.1.28.05.64-.04h0l2.65-.66c.27-.07.4-.1.52-.17.12-.07.22-.16.41-.36l7.19-7.19h0c.67-.67,1-1,1-1.41s-.33-.75-1-1.41l-.17-.17c-.67-.67-1-1-1.41-1s-.75.33-1.41,1Z"/>
      </g>
    </mask>
  </defs>
  <g class="uuid-85ea5ca8-2c86-4a22-856d-dd5f01c416e2">
    <path class="uuid-2363cd09-22c4-4725-b8ee-0c776bc28dd3" d="m3.28,10.19l1.41,1.41h0l-1.41-1.41Zm7.19-7.19l-1.41-1.41h0l1.41,1.41Zm2.83,0l-1.41,1.41h0l1.41-1.41Zm.17.17l1.41-1.41h0l-1.41,1.41Zm0,2.83l1.41,1.41-1.41-1.41Zm-7.19,7.19l-1.41-1.41h0l1.41,1.41Zm-3.53-2.07l1.94.49h0l-1.94-.49Zm-.66,2.65l-1.94-.49H.15l1.94.49Zm.61.61l-.49-1.94-.09.02-.08.03.66,1.89Zm2.65-.66l-.49-1.94h0l.49,1.94Zm-3.3.7l1.41-1.41h0l-1.41,1.41Zm.64-.04l.49,1.94.09-.02.08-.03-.66-1.89Zm3.17-.83l-.99-1.74h0l.99,1.74Zm7.6-7.55l1.41,1.41h0l-1.41-1.41ZM2.92,10.6l-1.74-.99h0l1.74.99Zm1.77,1l7.19-7.19-2.83-2.83L1.87,8.78l2.83,2.83Zm7.19-7.19l.17.17,2.83-2.83-.17-.17-2.83,2.83Zm.17.17l-7.19,7.19,2.83,2.83,7.19-7.19-2.83-2.83ZM.81,10.64l-.66,2.65,3.88.97.66-2.65-3.88-.97Zm2.37,5.69l2.65-.66-.97-3.88-2.65.66.97,3.88ZM.15,13.29c-.03.12-.11.42-.14.71-.03.31-.06,1.14.63,1.83l2.83-2.83c.27.27.42.58.49.87.06.25.04.45.04.51,0,.07-.02.1,0,.06,0-.04.02-.09.05-.19l-3.88-.97Zm1.89-.8h0l1.31,3.78h0l-1.31-3.78Zm.17-.05c-.1.02-.15.04-.19.05-.04,0,0,0,.06,0,.06,0,.26-.02.51.04.29.07.61.22.87.49l-2.83,2.83c.69.69,1.52.66,1.83.63.29-.03.59-.11.71-.14l-.97-3.88Zm2.65-.66s-.05.05-.07.07c-.02.02-.04.04-.05.05-.01.01-.02.02-.03.03,0,0,0,0,0,0,0,0,0,0,0,0,0,0,0,0,0,0,0,0,0,0,0,0,0,0,.02-.02.04-.03.02-.01.03-.03.06-.04.02-.01.05-.03.07-.04l1.97,3.48c.41-.23.72-.57.84-.69l-2.83-2.83Zm.97,3.88c.16-.04.61-.14,1.02-.37l-1.97-3.48s.05-.03.07-.04c.02-.01.05-.02.06-.03.02,0,.03-.01.04-.02,0,0,0,0,.01,0,0,0,0,0,0,0s0,0,0,0c0,0,0,0-.01,0,0,0-.02,0-.04.01-.02,0-.04.01-.07.02-.03,0-.06.01-.09.02l.97,3.88Zm6.22-11.07c.17.17.3.3.4.41.1.11.15.17.17.19.02.02-.02-.02-.07-.13-.05-.12-.09-.29-.09-.47h4c0-.82-.36-1.43-.66-1.83-.27-.35-.63-.71-.93-1l-2.83,2.83Zm2.83,2.83h0l-2.83-2.83h0s2.83,2.83,2.83,2.83Zm0,0c.29-.29.66-.65.93-1,.3-.4.66-1.01.66-1.83h-4c0-.18.04-.34.09-.47.05-.11.09-.16.07-.13-.02.03-.07.08-.17.19-.1.11-.23.24-.4.41l2.83,2.83Zm-3-3c.17-.17.3-.3.41-.4.11-.1.17-.15.19-.17.02-.02-.02.02-.13.07-.12.05-.29.09-.47.09V0c-.82,0-1.43.36-1.83.66-.35.27-.71.63-1,.93l2.83,2.83Zm2.83-2.83c-.29-.29-.65-.66-1-.93-.4-.3-1.01-.66-1.83-.66v4c-.18,0-.34-.04-.47-.09-.11-.05-.16-.09-.13-.07.03.02.08.07.19.17.11.1.24.23.41.4l2.83-2.83ZM1.87,8.78c-.12.12-.45.43-.69.84l3.48,1.97s-.03.05-.04.07c-.01.02-.03.04-.04.06-.01.02-.02.03-.03.04,0,0,0,0,0,0,0,0,0,0,0,0s0,0,0,0c0,0,0,0,0,0,0,0,.02-.02.03-.03.01-.01.03-.03.05-.05.02-.02.04-.04.07-.07l-2.83-2.83Zm2.83,2.83s.02-.06.02-.09c0-.03.01-.05.02-.07,0-.02,0-.03.01-.04,0,0,0,0,0-.01,0,0,0,0,0,0,0,0,0,0,0,0,0,0,0,0,0,.01,0,0,0,.02-.02.04,0,.02-.02.04-.03.06-.01.02-.02.05-.04.07l-3.48-1.97c-.23.41-.33.86-.37,1.02l3.88.97Z"/>
  </g>
  <path class="uuid-2363cd09-22c4-4725-b8ee-0c776bc28dd3" d="m9.39,3.09l3-2,3,3-2,3-4-4Z"/>
</svg>