<svg width="44" height="44" viewBox="-5.5 -5.5 55 54" fill="none" xmlns="http://www.w3.org/2000/svg">
<path d="M11.4583 28.7091C11.4583 25.6541 11.4583 24.1267 12.0873 22.784C12.7163 21.4413 13.8975 20.4473 16.2599 18.4591L18.5516 16.5306C22.8217 12.937 24.9568 11.1403 27.5 11.1403C30.0432 11.1403 32.1783 12.937 36.4484 16.5306L38.74 18.4591C41.1025 20.4473 42.2837 21.4413 42.9127 22.784C43.5416 24.1267 43.5416 25.6542 43.5416 28.7091V38.25C43.5416 42.4926 43.5416 44.6139 42.1992 45.932C40.8568 47.25 38.6962 47.25 34.375 47.25H20.625C16.3038 47.25 14.1432 47.25 12.8007 45.932C11.4583 44.6139 11.4583 42.4926 11.4583 38.25V28.7091Z" stroke="#FCE3BF" stroke-width="3"/>
<path d="M33.2291 47.25V34.75C33.2291 34.1977 32.7814 33.75 32.2291 33.75H22.7708C22.2185 33.75 21.7708 34.1977 21.7708 34.75V47.25" stroke="#FCE3BF" stroke-width="3" stroke-linecap="round" stroke-linejoin="round"/>
</svg>
