<?xml version="1.0" encoding="UTF-8"?>
<svg id="uuid-f21d16bf-e400-4a34-8a0c-4ede890c5908" data-name="Layer 1" xmlns="http://www.w3.org/2000/svg" viewBox="0 0 50 50">
  <defs>
    <style>
      .uuid-bf74910c-99f6-4b3f-bacb-07c2be6bce69 {
        fill: #571b09;
        fill-rule: evenodd;
      }
    </style>
  </defs>
  <path class="uuid-bf74910c-99f6-4b3f-bacb-07c2be6bce69" d="m27.5,17.83c-.46.97-1.43,1.58-2.5,1.59h-8.33v27.81c0,1.53-1.24,2.78-2.78,2.78s-2.78-1.24-2.78-2.78v-27.81H2.78c-1.07,0-2.04-.62-2.5-1.59-.47-.96-.34-2.09.33-2.92L11.72,1c1.02-1.2,2.81-1.34,4.01-.32.12.1.22.21.32.32l11.11,13.91c.67.83.8,1.96.33,2.92h0Zm22.22,14.35c-.46-.97-1.43-1.58-2.5-1.59h-8.33V2.78C38.89,1.25,37.65,0,36.11,0s-2.78,1.24-2.78,2.78v27.81h-8.33c-1.07,0-2.04.62-2.5,1.59-.47.96-.34,2.09.33,2.92l11.11,13.91c1.02,1.2,2.81,1.34,4.01.32.12-.1.22-.21.32-.32l11.11-13.91c.67-.83.8-1.96.33-2.92h0Z"/>
</svg>