<?xml version="1.0" encoding="UTF-8"?>
<svg id="uuid-3ad5c9a1-2dbb-488e-8337-1439c7f43ba8" data-name="Layer 1" xmlns="http://www.w3.org/2000/svg" viewBox="0 0 122.88 116.54">
  <defs>
    <style>
      .uuid-ad0d5e61-8363-4904-8663-b5d6cf6101bb {
        fill: #571b09;
      }

      .uuid-1be819ac-ab36-48d3-961d-cc38b0266f31, .uuid-4c68a205-7666-419a-ac99-355b35dd5cac {
        fill: #bb925d;
      }

      .uuid-1be819ac-ab36-48d3-961d-cc38b0266f31, .uuid-f9aa3d84-00db-41ff-90cb-da0cb1f99165 {
        fill-rule: evenodd;
      }

      .uuid-f9aa3d84-00db-41ff-90cb-da0cb1f99165 {
        fill: #fce3bf;
      }
    </style>
  </defs>
  <path class="uuid-4c68a205-7666-419a-ac99-355b35dd5cac" d="m111.36,116.54H11.52c-6.35-.03-11.49-5.17-11.52-11.52V39.93h122.88v65.07c-.03,6.35-5.17,11.49-11.52,11.52v.02Z"/>
  <path class="uuid-f9aa3d84-00db-41ff-90cb-da0cb1f99165" d="m12.75,112.84h97.38c4.99-.02,9.04-4.07,9.06-9.06v-58.92H3.69v58.92c.01,5,4.06,9.05,9.06,9.06Z"/>
  <path class="uuid-1be819ac-ab36-48d3-961d-cc38b0266f31" d="m11.52,6.6h99.84c6.35.03,11.49,5.17,11.52,11.52v26.75H0v-26.75C.02,11.76,5.17,6.62,11.52,6.6Zm24.79,9.75c5.14,0,9.31,4.17,9.31,9.31s-4.17,9.31-9.31,9.31-9.31-4.17-9.31-9.31h0c0-5.14,4.17-9.31,9.31-9.31h0Zm49.79,0c5.14,0,9.31,4.17,9.31,9.31s-4.17,9.31-9.31,9.31-9.31-4.17-9.31-9.31h0c0-5.14,4.17-9.31,9.31-9.31Z"/>
  <path class="uuid-f9aa3d84-00db-41ff-90cb-da0cb1f99165" d="m86.1,14.56c6.13,0,11.1,4.97,11.1,11.1,0,6.13-4.97,11.1-11.1,11.1-6.13,0-11.1-4.97-11.1-11.1,0-2.94,1.17-5.77,3.25-7.85l.11-.1c2.07-2.02,4.85-3.15,7.74-3.15Zm0,1.79c5.14,0,9.31,4.17,9.31,9.31s-4.17,9.31-9.31,9.31-9.31-4.17-9.31-9.31h0c0-5.14,4.17-9.31,9.31-9.31Z"/>
  <path class="uuid-f9aa3d84-00db-41ff-90cb-da0cb1f99165" d="m36.31,14.56c6.13,0,11.1,4.97,11.1,11.1,0,6.13-4.97,11.1-11.1,11.1-6.13,0-11.1-4.97-11.1-11.1,0-2.94,1.17-5.77,3.25-7.85l.11-.1c2.07-2.02,4.85-3.15,7.74-3.15Zm0,1.79c5.14,0,9.31,4.17,9.31,9.31s-4.17,9.31-9.31,9.31-9.31-4.17-9.31-9.31h0c0-5.14,4.17-9.31,9.31-9.31h0Z"/>
  <path class="uuid-ad0d5e61-8363-4904-8663-b5d6cf6101bb" d="m80.54,4.56c0-2.56,2.46-4.56,5.56-4.56s5.56,2,5.56,4.56v21.21c0,2.51-2.49,4.55-5.56,4.55s-5.56-2-5.56-4.55V4.56Z"/>
  <path class="uuid-ad0d5e61-8363-4904-8663-b5d6cf6101bb" d="m30.75,4.56c0-2.56,2.49-4.56,5.56-4.56s5.56,2,5.56,4.56v21.21c0,2.51-2.48,4.55-5.56,4.55s-5.56-2-5.56-4.55c0,0,0-21.21,0-21.21Z"/>
  <polygon class="uuid-ad0d5e61-8363-4904-8663-b5d6cf6101bb" points="70.36 65.14 79.6 65.14 75.27 92.78 63.73 92.78 61.73 82.61 61.2 82.61 59.2 92.78 47.63 92.78 43.29 65.14 52.55 65.14 54.63 80.57 54.9 80.57 58.07 65.14 64.85 65.14 67.98 80.57 68.26 80.57 70.37 65.14 70.36 65.14"/>
</svg>